<svg width="60" height="60" viewBox="0 0 60 60" fill="none" xmlns="http://www.w3.org/2000/svg">
<path d="M29.8516 0H29.8219L0 20.6751V60H60V20.4253L29.8516 0ZM20.0149 54.555H6.33532V22.6348L29.8813 6.32618L52.1068 21.4248C52.1068 21.4248 31.6913 21.2933 29.3621 21.4642C26.6914 21.6747 25.3709 24.5814 25.0001 25.936C24.6143 27.0013 22.8042 33.8668 22.8042 33.8668C20.4879 35.6294 18.9874 38.0883 18.5904 40.7716C18.2382 42.9837 18.7401 45.2363 20.0149 47.1635V54.555ZM24.6143 43.2441C24.0555 43.2494 23.5075 43.1073 23.0402 42.8359C22.5726 42.5645 22.2066 42.176 21.9887 41.7199C21.7709 41.2639 21.7108 40.7605 21.8162 40.274C21.9216 39.7877 22.1877 39.3399 22.5808 38.9878C22.9738 38.6357 23.4761 38.3951 24.0237 38.2965C24.5713 38.1979 25.1395 38.2458 25.6563 38.4342C26.1733 38.6226 26.6152 38.9427 26.9264 39.3543C27.2374 39.7658 27.4035 40.25 27.4036 40.7453C27.4061 41.0719 27.3358 41.3957 27.197 41.6981C27.0581 42.0006 26.8532 42.2759 26.5941 42.508C26.335 42.7401 26.0267 42.9247 25.687 43.051C25.3472 43.1773 24.9827 43.243 24.6143 43.2441ZM53.8279 54.555H26.8695V51.8852C27.7052 52.0643 28.5616 52.157 29.4214 52.1613H53.8279V54.555ZM31.9437 47.4134C31.9427 47.3055 31.9657 47.1984 32.0113 47.0983C32.057 46.9983 32.1245 46.9072 32.2099 46.8302C32.2954 46.7532 32.3971 46.6921 32.5091 46.6499C32.6213 46.6077 32.7417 46.5857 32.8635 46.5849H49.1098C49.3576 46.5849 49.5955 46.6721 49.7708 46.8275C49.9461 46.9829 50.0445 47.1937 50.0445 47.4134C50.0445 47.6331 49.9461 47.8439 49.7708 47.9993C49.5955 48.1547 49.3576 48.2419 49.1098 48.2419H32.8635C32.7417 48.2411 32.6213 48.2191 32.5091 48.1769C32.3971 48.1347 32.2954 48.0736 32.2099 47.9966C32.1245 47.9196 32.057 47.8285 32.0113 47.7285C31.9657 47.6284 31.9427 47.5213 31.9437 47.4134ZM53.8427 32.9723C51.9584 32.7619 47.4036 32.5252 42.9079 32.4857C42.8635 32.4857 40.9348 32.4595 40.4896 32.4857L28.7982 33.1038C28.6403 33.1171 28.4814 33.1171 28.3234 33.1038C27.7923 33.1001 27.2846 32.9096 26.9119 32.5742C26.5391 32.2388 26.3317 31.7861 26.3353 31.3153C26.3429 31.0767 26.3728 30.8391 26.4243 30.605L27.8932 26.2384C28.0476 25.7895 28.309 25.3752 28.6597 25.0235C29.0103 24.6717 29.4422 24.391 29.9259 24.1999C30.1083 24.1448 30.2976 24.1094 30.4896 24.0947C30.5786 24.0815 35.1483 23.6869 39.6736 23.6344L42.9376 23.6475C42.9376 23.6475 52.003 23.9105 52.7449 23.9763C52.8339 23.9763 52.9229 23.9895 53.0119 23.9895C53.7537 24.0684 53.813 24.1605 53.8427 24.1999V32.9723Z" fill="url(#paint0_linear_273_6)"/>
<defs>
<linearGradient id="paint0_linear_273_6" x1="3.97923" y1="17.1464" x2="49.9011" y2="68.952" gradientUnits="userSpaceOnUse">
<stop stop-color="#F9C621"/>
<stop offset="1" stop-color="#FF3C00"/>
</linearGradient>
</defs>
</svg>
