<svg width="111" height="101" viewBox="0 0 111 101" fill="none" xmlns="http://www.w3.org/2000/svg">
<path d="M39.979 65.5548H61.3655C62.2777 65.5548 63.0181 64.8822 63.0181 64.0511C63.0181 63.22 62.2777 62.5474 61.3655 62.5474H39.979C39.0668 62.5474 38.3264 63.22 38.3264 64.0511C38.3264 64.8822 39.0668 65.5548 39.979 65.5548Z" fill="black"/>
<path d="M68.9299 69.8706H31.9321C31.0199 69.8706 30.2795 70.5433 30.2795 71.3743C30.2795 72.2054 31.0199 72.8781 31.9321 72.8781H68.9299C69.8421 72.8781 70.5825 72.2054 70.5825 71.3743C70.5825 70.5433 69.8421 69.8706 68.9299 69.8706Z" fill="black"/>
<path d="M61.3655 77.1899H39.979C39.0668 77.1899 38.3264 77.8626 38.3264 78.6937C38.3264 79.5247 39.0668 80.1974 39.979 80.1974H61.3655C62.2777 80.1974 63.0181 79.5247 63.0181 78.6937C63.0181 77.8626 62.2777 77.1899 61.3655 77.1899Z" fill="black"/>
<path d="M40.1575 42.5469H48.1449V49.8189C48.1449 50.65 48.8852 51.3227 49.7975 51.3227C50.7097 51.3227 51.45 50.65 51.45 49.8189V42.5469H59.4265C60.3387 42.5469 61.079 41.8742 61.079 41.0431C61.079 40.2121 60.3387 39.5394 59.4265 39.5394H51.45V32.2713C51.45 31.4403 50.7097 30.7676 49.7975 30.7676C48.8852 30.7676 48.1449 31.4403 48.1449 32.2713V39.5394H40.1575C39.2452 39.5394 38.5049 40.2121 38.5049 41.0431C38.5049 41.8742 39.2452 42.5469 40.1575 42.5469Z" fill="black"/>
<path d="M88.082 12.2454H30.7807C29.8685 12.2454 29.1282 12.918 29.1282 13.7491V20.953H21.1396C20.2274 20.953 19.4871 21.6257 19.4871 22.4567V88.5039C19.4871 89.3349 20.2274 90.0076 21.1396 90.0076H78.4498C79.362 90.0076 80.1023 89.3349 80.1023 88.5039V81.3H88.082C88.9943 81.3 89.7346 80.6273 89.7346 79.7962V13.7481C89.7346 12.919 88.9943 12.2454 88.082 12.2454ZM22.7922 87.0011V23.9615H76.7972V79.7301C76.7961 79.7531 76.7895 79.7752 76.7895 79.7982C76.7895 79.8213 76.7961 79.8433 76.7972 79.8664V87.0021H22.7922V87.0011ZM86.4295 78.2935H80.1023V22.4567C80.1023 21.6257 79.362 20.953 78.4498 20.953H32.4333V15.2528H86.4295V78.2935Z" fill="black"/>
</svg>
