<svg width="110" height="99" viewBox="0 0 110 99" fill="none" xmlns="http://www.w3.org/2000/svg">
<path d="M76.0131 12.2448C76.0109 12.2418 76.0098 12.2378 76.0076 12.2348L68.3395 1.08808C68.0376 0.648987 67.5077 0.382324 66.9392 0.382324H41.153C40.5834 0.382324 40.0546 0.648987 39.7527 1.08808L32.121 12.1816H26.4614C22.0776 12.1816 18.5112 15.4267 18.5112 19.4156V25.2441C18.5112 29.233 22.0776 32.4781 26.4614 32.4781H28.872C29.4427 36.072 32.8415 38.8459 36.9466 38.8459C41.0517 38.8459 44.4505 36.072 45.0212 32.4781H65.0993C65.67 36.072 69.0688 38.8459 73.1739 38.8459C77.279 38.8459 80.6778 36.072 81.2485 32.4781H84.8138C89.1976 32.4781 92.7639 29.233 92.7639 25.2441C92.7628 18.1395 83.2295 12.8744 76.0131 12.2448ZM42.0686 3.3898H66.0236L72.0722 12.1816H36.02L42.0686 3.3898ZM36.9455 35.8384C34.2639 35.8384 32.0824 33.8535 32.0824 31.4134C32.0824 28.9734 34.2639 26.9884 36.9455 26.9884C39.6271 26.9884 41.8086 28.9734 41.8086 31.4134C41.8086 33.8535 39.6271 35.8384 36.9455 35.8384ZM73.1728 35.8384C70.4912 35.8384 68.3097 33.8535 68.3097 31.4134C68.3097 28.9734 70.4912 26.9884 73.1728 26.9884C75.8544 26.9884 78.0359 28.9734 78.0359 31.4134C78.0359 33.8535 75.8544 35.8384 73.1728 35.8384ZM84.8127 29.4706H81.048C80.106 26.3128 76.9363 23.981 73.1728 23.981C69.4093 23.981 66.2396 26.3138 65.2976 29.4706H44.8207C43.8787 26.3128 40.709 23.981 36.9455 23.981C33.182 23.981 30.0123 26.3138 29.0703 29.4706H26.4603C23.8987 29.4706 21.8153 27.5749 21.8153 25.2441V19.4156C21.8153 17.0848 23.8998 15.1891 26.4603 15.1891H74.6073C81.0921 15.1891 89.4576 20.0652 89.4576 25.2441C89.4576 27.5749 87.3742 29.4706 84.8127 29.4706Z" fill="black"/>
<path d="M76.0132 72.1708C76.011 72.1678 76.0099 72.1648 76.0077 72.1618L68.3396 61.0151C68.0377 60.576 67.5078 60.3093 66.9393 60.3093H61.5342C60.6219 60.3093 59.8816 60.983 59.8816 61.8131V72.1087H26.4604C22.0766 72.1087 18.5103 75.3537 18.5103 79.3426V85.1711C18.5103 89.16 22.0766 92.4051 26.4604 92.4051H28.871C29.4417 96 32.8405 98.7739 36.9456 98.7739C41.0529 98.7739 44.4529 95.998 45.0213 92.4011C45.0533 92.4031 45.0841 92.4101 45.1161 92.4101H65.0983C65.6701 96.003 69.0679 98.7749 73.1718 98.7749C77.278 98.7749 80.6758 96.001 81.2465 92.4061H84.8117C89.1955 92.4061 92.7618 89.161 92.7618 85.1721C92.7629 78.0655 83.2285 72.8004 76.0132 72.1708ZM63.1868 63.3158H66.0238L72.0723 72.1076H63.1868V63.3158ZM36.9456 95.7644C34.264 95.7644 32.0826 93.7795 32.0826 91.3394C32.0826 88.8994 34.264 86.9144 36.9456 86.9144C39.6272 86.9144 41.8087 88.8994 41.8087 91.3394C41.8087 93.7795 39.6272 95.7644 36.9456 95.7644ZM73.1729 95.7644C70.4913 95.7644 68.3099 93.7795 68.3099 91.3394C68.3099 88.8994 70.4913 86.9144 73.1729 86.9144C75.8546 86.9144 78.036 88.8994 78.036 91.3394C78.036 93.7795 75.8546 95.7644 73.1729 95.7644ZM84.8128 89.3966H81.0481C80.1051 86.2398 76.9365 83.907 73.1729 83.907C69.4072 83.907 66.2375 86.2408 65.2966 89.3996H45.1161C45.018 89.3996 44.9233 89.4106 44.8296 89.4257C43.8987 86.2528 40.7213 83.906 36.9456 83.906C33.1821 83.906 30.0124 86.2378 29.0704 89.3956H26.4604C23.8988 89.3956 21.8155 87.4989 21.8155 85.1691V79.3406C21.8155 77.0108 23.9 75.1141 26.4604 75.1141H74.6074C81.0922 75.1141 89.4577 79.9902 89.4577 85.1691C89.4577 87.4999 87.3743 89.3966 84.8128 89.3966Z" fill="black"/>
<path d="M11.2388 30.9494C11.1033 30.5705 10.8081 30.2557 10.418 30.0732C10.0269 29.8918 9.57301 29.8607 9.15655 29.983L1.29566 32.3038C0.42749 32.5604 -0.0484608 33.4085 0.233584 34.1985C0.515629 34.9894 1.4499 35.4205 2.31587 35.1649L6.06508 34.0581C3.88584 39.3242 2.76868 44.865 2.76868 50.5792C2.76868 57.359 4.32213 63.9023 7.38606 70.0275C7.6626 70.5819 8.26304 70.9087 8.89103 70.9087C9.12019 70.9087 9.35266 70.8656 9.57521 70.7734C10.4059 70.4295 10.7728 69.5383 10.3949 68.7824C7.52819 63.0502 6.07389 56.925 6.07389 50.5782C6.07389 45.1858 7.13376 39.9588 9.20613 34.9945L10.645 39.0305C10.872 39.6661 11.5198 40.0711 12.2161 40.0711C12.3846 40.0711 12.5576 40.047 12.7262 39.9969C13.5943 39.7403 14.0703 38.8921 13.7883 38.1022L11.2388 30.9494Z" fill="black"/>
<path d="M109.769 66.3833C109.358 65.6425 108.368 65.3437 107.549 65.7146L103.852 67.4048C106.117 62.0465 107.27 56.3995 107.27 50.577C107.27 43.7992 105.717 37.2589 102.654 31.1357C102.275 30.3808 101.295 30.046 100.466 30.3898C99.6356 30.7337 99.2687 31.6259 99.6466 32.3818C102.513 38.11 103.965 44.2322 103.965 50.576C103.965 56.1308 102.849 61.5142 100.649 66.6129L98.676 63.038C98.265 62.2951 97.2724 61.9954 96.4571 62.3683C95.6407 62.7412 95.3124 63.6445 95.7211 64.3873L99.4307 71.107C99.6279 71.4639 99.9716 71.7346 100.388 71.8599C100.557 71.911 100.732 71.9361 100.908 71.9361C101.163 71.9361 101.418 71.882 101.651 71.7767L109.035 68.4013C109.85 68.0294 110.178 67.1251 109.769 66.3833Z" fill="black"/>
</svg>
