<svg width="111" height="101" viewBox="0 0 111 101" fill="none" xmlns="http://www.w3.org/2000/svg">
<path d="M91.2179 14.2799C88.4733 11.757 84.8063 10.2387 80.9129 10.013C77.0194 9.78728 73.1703 10.8699 70.096 13.0555C67.0218 15.2411 64.9362 18.3774 64.235 21.8695C63.5339 25.3616 64.266 28.9664 66.2924 31.9999C66.3164 32.0636 66.3497 32.1241 66.3913 32.1799L76.7549 47.9999H65.4351C62.3746 47.9999 59.4395 49.1061 57.2754 51.0753C55.1113 53.0444 53.8955 55.7151 53.8955 58.4999C53.8955 61.2847 55.1113 63.9554 57.2754 65.9245C59.4395 67.8936 62.3746 68.9999 65.4351 68.9999H67.7211C70.6358 68.9999 73.4312 70.0535 75.4922 71.9288C77.5533 73.8042 78.7112 76.3477 78.7112 78.9999C78.7112 81.6521 77.5533 84.1956 75.4922 86.071C73.4312 87.9463 70.6358 88.9999 67.7211 88.9999H30.4097L41.5756 72.7399C41.6306 72.6599 41.6745 72.5799 41.7185 72.4999C43.1826 70.3017 43.9777 67.7888 44.0223 65.2188C44.0669 62.6488 43.3594 60.1142 41.9724 57.8751C40.5854 55.636 38.5688 53.7728 36.1294 52.4768C33.69 51.1807 30.9156 50.4985 28.0908 50.4999V50.4999C25.2637 50.4935 22.4857 51.1725 20.0427 52.4671C17.5997 53.7617 15.5798 55.6251 14.1908 57.8656C12.8018 60.1062 12.0939 62.6429 12.1398 65.215C12.1857 67.7871 12.9838 70.3016 14.4521 72.4999L14.551 72.6799L26.3763 90.7599C26.4251 90.8363 26.4842 90.9068 26.5522 90.9699C26.6662 91.2633 26.8776 91.5171 27.1572 91.6963C27.4368 91.8755 27.7708 91.9711 28.1128 91.9699H67.7211C71.5102 91.9699 75.1442 90.6003 77.8236 88.1623C80.5029 85.7243 82.0082 82.4177 82.0082 78.9699C82.0082 75.5221 80.5029 72.2155 77.8236 69.7775C75.1442 67.3395 71.5102 65.9699 67.7211 65.9699H65.4351C63.2491 65.9699 61.1525 65.1797 59.6067 63.7732C58.061 62.3667 57.1926 60.459 57.1926 58.4699C57.1926 56.4808 58.061 54.5731 59.6067 53.1666C61.1525 51.7601 63.2491 50.9699 65.4351 50.9699H79.4585C79.5828 50.9803 79.7079 50.9803 79.8322 50.9699C80.0774 50.9439 80.3132 50.8685 80.5223 50.7492C80.7314 50.6298 80.9086 50.4695 81.0411 50.2799L93.4159 32.2199C93.4728 32.1463 93.5173 32.0654 93.5478 31.9799C95.3829 29.2153 96.1503 25.9721 95.7282 22.7653C95.3061 19.5585 93.7186 16.5719 91.2179 14.2799V14.2799ZM17.4963 71.3399C17.4635 71.2583 17.4192 71.181 17.3644 71.1099C16.1623 69.3721 15.4949 67.3726 15.4319 65.3201C15.3689 63.2675 15.9126 61.2372 17.0062 59.4411C18.0999 57.6451 19.7034 56.149 21.6493 55.1092C23.5952 54.0694 25.8122 53.524 28.0688 53.5299C29.7271 53.5338 31.3683 53.8349 32.8987 54.416C34.4291 54.997 35.8187 55.8467 36.9882 56.9164C38.1577 57.9862 39.0843 59.255 39.7149 60.6506C40.3454 62.0461 40.6678 63.541 40.6634 65.0499C40.6587 67.2061 39.9844 69.3173 38.7182 71.1399C38.6734 71.2145 38.6331 71.2913 38.5973 71.3699L27.816 87.1099L17.4963 71.3399ZM92.5587 24.5399C92.554 26.6961 91.8797 28.8073 90.6134 30.6299C90.5687 30.7045 90.5283 30.7813 90.4925 30.8599L79.6783 46.5999L69.3586 30.8299L69.2377 30.5999C68.0303 28.8625 67.3583 26.8618 67.2919 24.8071C67.2254 22.7525 67.767 20.7193 68.86 18.9203C69.9531 17.1214 71.5573 15.6227 73.5049 14.5812C75.4525 13.5397 77.672 12.9935 79.9311 12.9999V12.9999C81.594 12.9999 83.2405 13.2987 84.7762 13.8793C86.3118 14.4598 87.7063 15.3106 88.8796 16.3829C90.0529 17.4551 90.9819 18.7277 91.6133 20.1275C92.2446 21.5273 92.5659 23.0268 92.5587 24.5399V24.5399Z" fill="black"/>
<path d="M79.9421 17.48C78.1405 17.5451 76.4366 18.242 75.1873 19.4248C73.938 20.6076 73.2402 22.1845 73.2402 23.825C73.2402 25.4655 73.938 27.0423 75.1873 28.2251C76.4366 29.4079 78.1405 30.1049 79.9421 30.17C81.7872 30.1673 83.5561 29.4999 84.8619 28.3137C86.1677 27.1274 86.904 25.5189 86.9098 23.84C86.9112 23.0061 86.7321 22.1801 86.3828 21.4092C86.0334 20.6383 85.5206 19.9375 84.8735 19.3469C84.2265 18.7563 83.458 18.2875 82.6119 17.9672C81.7657 17.6468 80.8585 17.4813 79.9421 17.48ZM83.6128 23.83C83.6142 24.2698 83.5199 24.7055 83.3353 25.112C83.1506 25.5185 82.8793 25.8877 82.537 26.1982C82.1947 26.5088 81.7881 26.7545 81.3409 26.9213C80.8936 27.0881 80.4144 27.1726 79.9311 27.17C79.4454 27.171 78.9644 27.083 78.5169 26.9112C78.0694 26.7394 77.6645 26.4873 77.3264 26.17C76.8094 25.7028 76.4568 25.1062 76.3137 24.4561C76.1705 23.806 76.2432 23.1319 76.5226 22.5195C76.8019 21.9072 77.2752 21.3843 77.8822 21.0176C78.4892 20.6508 79.2024 20.4567 79.9311 20.46C80.4164 20.4612 80.8966 20.5502 81.3438 20.7219C81.791 20.8936 82.1961 21.1445 82.5357 21.46C82.881 21.77 83.1558 22.1388 83.3443 22.5455C83.5329 22.9521 83.6316 23.3886 83.6347 23.83H83.6128Z" fill="black"/>
<path d="M28.0798 70.69C29.9307 70.69 31.7057 70.021 33.0145 68.8301C34.3232 67.6393 35.0585 66.0241 35.0585 64.34C35.0585 62.6559 34.3232 61.0407 33.0145 59.8499C31.7057 58.659 29.9307 57.99 28.0798 57.99C26.2289 57.99 24.4539 58.659 23.1451 59.8499C21.8363 61.0407 21.1011 62.6559 21.1011 64.34C21.1011 66.0241 21.8363 67.6393 23.1451 68.8301C24.4539 70.021 26.2289 70.69 28.0798 70.69ZM24.3981 64.33C24.3978 63.8896 24.495 63.4537 24.6838 63.0483C24.8726 62.6428 25.1492 62.2761 25.4971 61.97C25.835 61.6552 26.2383 61.4047 26.6836 61.2331C27.1289 61.0614 27.6072 60.972 28.0908 60.97C29.0663 60.9753 29.9999 61.3316 30.6877 61.9612C31.3755 62.5907 31.7615 63.4423 31.7615 64.33C31.7586 65.2167 31.3694 66.0662 30.6793 66.6923C29.9891 67.3184 29.0543 67.67 28.0798 67.67C27.5947 67.6671 27.115 67.5773 26.6681 67.4058C26.2212 67.2342 25.8158 66.9842 25.4751 66.67C24.7898 66.0505 24.4025 65.209 24.3981 64.33Z" fill="black"/>
</svg>
